<svg xmlns="http://www.w3.org/2000/svg" xmlns:xlink="http://www.w3.org/1999/xlink" width="35.24" height="38.443" viewBox="0 0 35.24 38.443"><defs><linearGradient id="a" x1="1.425" y1="0.045" x2="0.5" y2="1" gradientUnits="objectBoundingBox"><stop offset="0" stop-color="#005897" stop-opacity="0.102"/><stop offset="1" stop-color="#005897"/></linearGradient></defs><g transform="translate(-1)"><path d="M5.805,10.812A7.618,7.618,0,0,1,13.414,3.2H28.043A4.4,4.4,0,0,0,23.826,0H5.4A4.409,4.409,0,0,0,1,4.4V29.233a4.409,4.409,0,0,0,4.4,4.4h.4Z" fill="url(#a)"/><path d="M28.826,4H10.4A4.409,4.409,0,0,0,6,8.4V31.631a4.409,4.409,0,0,0,4.4,4.4H28.826a4.409,4.409,0,0,0,4.4-4.4V8.4A4.409,4.409,0,0,0,28.826,4Zm-3.2,27.231H13.609a1.2,1.2,0,0,1,0-2.4H25.622a1.2,1.2,0,0,1,0,2.4Zm0-6.407H13.609a1.2,1.2,0,0,1,0-2.4H25.622a1.2,1.2,0,0,1,0,2.4Zm0-5.606H13.609a1.2,1.2,0,0,1,0-2.4H25.622a1.2,1.2,0,0,1,0,2.4Zm0-6.407H13.609a1.2,1.2,0,0,1,0-2.4H25.622a1.2,1.2,0,1,1,0,2.4Z" transform="translate(3.009 2.407)" fill="url(#a)"/></g></svg>