<svg xmlns="http://www.w3.org/2000/svg" xmlns:xlink="http://www.w3.org/1999/xlink" width="50.046" height="29.193" viewBox="0 0 50.046 29.193"><defs><linearGradient id="a" x1="2.04" y1="0.249" x2="1.42" y2="1.125" gradientUnits="objectBoundingBox"><stop offset="0" stop-color="#005897" stop-opacity="0.102"/><stop offset="1" stop-color="#005897"/></linearGradient></defs><g transform="translate(0 -106.666)"><g transform="translate(0 106.666)"><g transform="translate(0 0)"><path d="M12.094,108.96c-1.668-1.668-8.758-2.085-11.052-2.294a.766.766,0,0,0-.626.208,1.581,1.581,0,0,0-.417.834v18.767a.985.985,0,0,0,1.043,1.043H7.3a1.147,1.147,0,0,0,1.043-.626c0-.626,3.753-11.677,4.171-17.1A.833.833,0,0,0,12.094,108.96Z" transform="translate(0 -106.666)" fill="url(#a)"/></g></g><g transform="translate(17.698 111.045)"><g transform="translate(0 0)"><path d="M197.77,154.386c-2.085-.626-3.962-1.46-5.63-2.085-3.753-1.668-5.422-.834-8.758,2.5-1.46,1.46-2.5,3.545-2.294,4.379,0,.209,0,.209.417.417,1.043.417,2.5.626,3.962-1.668a1.083,1.083,0,0,1,.834-.417,3.865,3.865,0,0,0,1.46-.417,10.169,10.169,0,0,1,1.46-.626h.417c.208,0,.626.208.834.208,1.043,1.043,2.919,2.5,4.8,4.171a47.759,47.759,0,0,1,7.3,6.673h.208C201.315,163.352,198.812,156.263,197.77,154.386Z" transform="translate(-181.061 -151.467)" fill="url(#a)"/></g></g><g transform="translate(35.449 108.751)"><g transform="translate(0 0)"><path d="M376.22,128a36.568,36.568,0,0,0-12.929,2.085l-.626.626a1.254,1.254,0,0,0,.209.834c1.251,2.085,5.422,13.554,6.047,16.473a1.385,1.385,0,0,0,1.043.834h6.256a.985.985,0,0,0,1.043-1.043V129.042A.985.985,0,0,0,376.22,128Z" transform="translate(-362.666 -128)" fill="url(#a)"/></g></g><g transform="translate(10.843 112.922)"><path d="M137.834,186.932c-.834-1.877-4.379-4.587-7.507-7.09-1.668-1.46-3.336-2.711-4.588-3.754-.208.208-.626.208-.626.417a3.928,3.928,0,0,1-1.668.417c-1.668,2.085-3.753,2.919-6.047,2.085a2.465,2.465,0,0,1-1.877-1.877c-.417-2.085,1.46-5,2.919-6.464H114.27a106.316,106.316,0,0,1-3.336,12.511,23.573,23.573,0,0,0,2.294,2.294c3.962,3.336,8.55,6.673,9.384,7.3a5.927,5.927,0,0,0,2.5.834h.626l-3.336-3.336a1.032,1.032,0,0,1,1.46-1.46l4.171,4.171c.417.417.834.208,1.251.208.626-.208.834-.626,1.043-1.251l-4.8-4.8a1.032,1.032,0,0,1,1.46-1.46l5.213,5.213a2.23,2.23,0,0,0,1.668,0c.208-.208.626-.417.834-.834l-5.839-5.839a1.032,1.032,0,1,1,1.46-1.46l6.047,6.047a1.379,1.379,0,0,0,1.251-.208A1.416,1.416,0,0,0,137.834,186.932Z" transform="translate(-110.934 -170.667)" fill="url(#a)"/></g></g></svg>