<svg xmlns="http://www.w3.org/2000/svg" version="1.1" id="Capa_1" x="0" y="0" viewBox="0 0 363.868 363.868" xml:space="preserve" width="512" height="512"><path d="M92.723 274.945c-3.178 3.178-5.747 9.388-5.747 13.875v58.444h33.929v-92.373c0-4.487-2.569-5.56-5.747-2.382l-22.435 22.436zM241.752 219.573c-3.17 3.178-5.747 9.389-5.747 13.884v113.816h33.929V199.487c0-4.487-2.569-5.552-5.747-2.374l-22.435 22.46zM291.418 169.834c-3.178 3.17-5.755 9.38-5.755 13.867v163.563h31.547V152.212c0-4.487-2.577-5.56-5.755-2.382l-20.037 20.004zM193.078 268.239s-1.512 1.52-3.381 3.39c-1.861 1.87-3.373 7.031-3.373 11.518v64.118h33.929v-98.047c0-4.487-2.577-5.56-5.755-2.382l-21.42 21.403zM142.405 250.998c-3.178-3.17-5.755-2.105-5.755 2.382v93.885h33.929v-60.03c0-4.487-2.439-10.559-5.454-13.558l-5.454-5.43-17.266-17.249zM50.023 317.669l-10.957 10.974c-3.17 3.178-5.739 8.633-5.739 12.193v6.438h37.871V304.59c0-4.487-2.569-5.552-5.747-2.374l-15.428 15.453z" data-original="#010002" class="active-path" data-old_color="#010002" fill="#40860C"/><path d="M358.121 150.724c3.17 3.178 5.747 2.105 5.747-2.382V32.193c0-8.316-7.966-15.599-16.233-15.599H232.16c-4.487 0-5.56 2.577-2.382 5.755l41.074 41.106-16.753 16.68-77.701 77.774L135.3 116.82c-3.178-3.178-8.316-3.17-11.494 0L9.519 231.189c-12.697 12.705-12.689 33.295.008 45.991l.797.805c12.697 12.697 33.287 12.697 45.975-.008l73.247-73.287 41.098 41.057a8.144 8.144 0 0 0 11.502 0l135.479-135.503 40.496 40.48z" data-original="#010002" class="active-path" data-old_color="#010002" fill="#40860C"/></svg>