<svg xmlns="http://www.w3.org/2000/svg" xmlns:xlink="http://www.w3.org/1999/xlink" width="45.086" height="24.661" viewBox="0 0 45.086 24.661"><defs><linearGradient id="a" x1="0.821" y1="-0.306" x2="0.483" y2="0.656" gradientUnits="objectBoundingBox"><stop offset="0" stop-color="#005897" stop-opacity="0.102"/><stop offset="1" stop-color="#005897"/></linearGradient></defs><g transform="translate(0 -138.628)"><path d="M45.086,142.834c0,7.8-37.6,16.408-40.446,16.408-1.6,0-3.407-.368-3.407-1.839,0-.492.567-1.2,1.563-2.059h0l-2.639-4.69a1.205,1.205,0,0,1,.6-1.71l.454-.182a3.013,3.013,0,0,1,2.53.134l4.791,2.537c1.866-1.107,3.982-2.265,6.212-3.406l-9.337-6.058a1.205,1.205,0,0,1,.015-2.032l.764-.48a5.423,5.423,0,0,1,4.268-.652l15.533,4.1c4.843-1.922,9.222-3.234,11.814-3.234.692,0,1.385.018,2.054.066l-4.691,2.118-.112,1.578,7.241-3.329C44.03,140.517,45.086,141.29,45.086,142.834ZM26.189,156.3l5.794,6.582a1.205,1.205,0,0,0,1.413.3l.776-.361a3.616,3.616,0,0,0,2.067-3.7l-.725-6.2a.6.6,0,0,0-.8-.5l-8.274,2.915A.6.6,0,0,0,26.189,156.3Z" transform="translate(0 0)" fill="url(#a)"/></g></svg>