<?xml version="1.0" encoding="utf-8"?>
<!-- Generator: Adobe Illustrator 21.0.0, SVG Export Plug-In . SVG Version: 6.00 Build 0)  -->
<svg version="1.1" xmlns="http://www.w3.org/2000/svg" xmlns:xlink="http://www.w3.org/1999/xlink" x="0px" y="0px"
	 viewBox="0 0 36 36" style="enable-background:new 0 0 36 36;" xml:space="preserve">
	 <defs>
	 	<style>
	 		.icon {
	 			display:none;
	 		}
	 		.icon:target {
	 			display:inline;
	 		}
	 		rect {
	 			shape-rendering:crispEdges;
	 		}
	 	</style>
	 </defs>
<g id="blog" class="icon">
	<g>
		<g id="Layer_5">
			<g id="Layer_4_1_">
				<g>
					<path style="fill:#218DCD;" d="M4.9,31.4L0.1,12.6c-0.2-1.3,0.5-2.6,1.7-3L28,2.9c1.3-0.3,2.6,0.5,3,1.7l4.7,18.7
						c0.3,1.3-0.5,2.6-1.7,3L8,33.1C6.5,33.3,5.3,32.6,4.9,31.4z"/>
					<g>
						<path style="fill:#FFFFFF;" d="M8,32.4c-1.7,0-3.3-1.5-3.3-3.2L4.5,12.5c0-1.7,1.5-3.2,3.2-3.2l24.6-0.2
							c1.7,0,3.3,1.5,3.3,3.2L35.8,29c0,1.7-1.5,3.3-3.2,3.3L8,32.4L8,32.4z"/>
						<path style="fill:#218DCD;" d="M32.2,9.4c1.5,0,2.7,1.3,2.8,2.7l0.1,16.7c0,1.5-1.3,2.7-2.7,2.8L8,32c-1.5,0-2.7-1.3-2.8-2.7
							L4.9,12.5c0-1.6,1.3-2.8,2.8-2.8L32.2,9.4 M32.2,8.5L7.7,8.7c-2,0-3.6,1.7-3.6,3.6v16.8c0,2,1.7,3.6,3.6,3.6l24.7-0.2
							c2,0,3.6-1.7,3.6-3.6l-0.2-16.7C35.9,10.1,34.3,8.5,32.2,8.5L32.2,8.5z"/>
					</g>
					<g>
						<path style="fill:#90D6F0;" d="M23.4,28.9c-0.8,0-1.4-0.6-1.4-1.4v-3.8c0-0.8,0.6-1.4,1.4-1.4l6.4-0.1c0.8,0,1.4,0.6,1.4,1.4
							v3.8c0,0.8-0.6,1.4-1.4,1.4L23.4,28.9z"/>
						<path style="fill:#90D6F0;" d="M29.7,22.9c0.5,0,0.9,0.3,0.9,0.9v3.8c0,0.5-0.3,0.9-0.9,0.9l-6.4,0.1c-0.5,0-0.9-0.3-0.9-0.9
							v-3.8c0-0.5,0.3-0.9,0.9-0.9L29.7,22.9 M29.7,22.1h-6.4c-1,0-1.7,0.8-1.7,1.8v3.8c0,1,0.8,1.7,1.8,1.7l6.4-0.1
							c1,0,1.7-0.8,1.7-1.8v-3.8C31.7,22.7,30.8,22.1,29.7,22.1L29.7,22.1z"/>
					</g>
					<path style="fill:#218DCD;" d="M18.3,23.8l-8.9,0.1c-0.3,0-0.7-0.2-0.7-0.6l0,0c0-0.3,0.2-0.7,0.6-0.7l9.1-0.1
						c0.3,0,0.7,0.2,0.7,0.6l0,0C18.9,23.4,18.7,23.8,18.3,23.8z"/>
					<path style="fill:#218DCD;" d="M18.3,26.7h-9c-0.3,0-0.7-0.2-0.7-0.6l0,0c0-0.3,0.2-0.7,0.6-0.7l9.1-0.1c0.3,0,0.7,0.2,0.7,0.6
						l0,0C18.9,26.4,18.7,26.7,18.3,26.7z"/>
					<path style="fill:#218DCD;" d="M18.3,29.7l-8.9,0.1c-0.3,0-0.7-0.2-0.7-0.6l0,0c0-0.3,0.2-0.7,0.6-0.7l9.1-0.1
						c0.3,0,0.7,0.2,0.7,0.6l0,0C19,29.3,18.7,29.7,18.3,29.7z"/>
				</g>
				<g style="display:none;">
					<path style="display:inline;fill:#989798;" d="M4.9,31.4L0.1,12.6c-0.2-1.3,0.5-2.6,1.7-3L28,2.9c1.3-0.3,2.6,0.5,3,1.7
						l4.7,18.7c0.3,1.3-0.5,2.6-1.7,3L8,33.1C6.5,33.3,5.3,32.6,4.9,31.4z"/>
					<g style="display:inline;">
						<path style="fill:#FFFFFF;" d="M8,32.4c-1.7,0-3.3-1.5-3.3-3.2L4.5,12.5c0-1.7,1.5-3.2,3.2-3.2l24.6-0.2
							c1.7,0,3.3,1.5,3.3,3.2L35.8,29c0,1.7-1.5,3.3-3.2,3.3L8,32.4L8,32.4z"/>
						<path style="fill:#989798;" d="M32.2,9.4c1.5,0,2.7,1.3,2.8,2.7l0.1,16.7c0,1.5-1.3,2.7-2.7,2.8L8,32c-1.5,0-2.7-1.3-2.8-2.7
							L4.9,12.5c0-1.6,1.3-2.8,2.8-2.8L32.2,9.4 M32.2,8.5L7.7,8.7c-2,0-3.6,1.7-3.6,3.6v16.8c0,2,1.7,3.6,3.6,3.6l24.7-0.2
							c2,0,3.6-1.7,3.6-3.6l-0.2-16.7C35.9,10.1,34.3,8.5,32.2,8.5L32.2,8.5z"/>
					</g>
					<g style="display:inline;">
						<path style="fill:#989798;" d="M29.8,29.3h-6.5c-1,0-1.8-0.7-1.8-1.7v-3.8c0-1,0.7-1.8,1.7-1.8l6.4-0.1c1,0,1.8,0.7,1.8,1.7
							v3.8C31.7,28.5,30.9,29.3,29.8,29.3z"/>
					</g>
					<g style="display:inline;">
						<path style="fill:#989798;" d="M18.3,23.8l-8.9,0.1c-0.3,0-0.7-0.2-0.7-0.6l0,0c0-0.3,0.2-0.7,0.6-0.7l9.1-0.1
							c0.3,0,0.7,0.2,0.7,0.6l0,0C18.9,23.4,18.7,23.8,18.3,23.8z"/>
					</g>
					<g style="display:inline;">
						<path style="fill:#989798;" d="M18.3,26.7h-9c-0.3,0-0.7-0.2-0.7-0.6l0,0c0-0.3,0.2-0.7,0.6-0.7l9.1-0.1
							c0.3,0,0.7,0.2,0.7,0.6l0,0C18.9,26.4,18.7,26.7,18.3,26.7z"/>
					</g>
					<g style="display:inline;">
						<path style="fill:#989798;" d="M18.3,29.7l-8.9,0.1c-0.3,0-0.7-0.2-0.7-0.6l0,0c0-0.3,0.2-0.7,0.6-0.7l9.1-0.1
							c0.3,0,0.7,0.2,0.7,0.6l0,0C19,29.3,18.7,29.7,18.3,29.7z"/>
					</g>
					<g style="display:inline;">
						<g>
							<path style="fill:#FFFFFF;" d="M8.9,19.9l-0.1-6.8h2c0.7,0,1,0.1,1.4,0.3s0.5,0.6,0.6,1.1c0,0.3-0.1,0.8-0.3,1
								S12,16,11.6,16.2l0,0c0.5,0,0.9,0.2,1.1,0.5s0.3,0.6,0.3,1.1c0,0.7-0.2,1-0.6,1.4c-0.3,0.3-1,0.6-1.6,0.6L8.9,19.9L8.9,19.9z
								 M9.8,13.8V16h0.9c0.5,0,0.8-0.1,1-0.3s0.3-0.5,0.3-0.9c0-0.7-0.3-1-1.3-1H9.8z M9.8,16.7v2.5h1.1c0.5,0,0.9-0.1,1.1-0.3
								c0.2-0.2,0.3-0.5,0.3-0.9c0-0.8-0.6-1.3-1.6-1.3L9.8,16.7z"/>
							<path style="fill:#989798;" d="M10.8,13.1h-2L8.9,20h2c0.7,0,1.1-0.1,1.6-0.6c0.3-0.3,0.6-0.9,0.6-1.4s-0.1-0.9-0.3-1.1
								s-0.7-0.5-1.1-0.5l0,0c0.3-0.1,0.6-0.3,0.9-0.7c0.3-0.3,0.3-0.7,0.3-1c0-0.5-0.1-0.9-0.6-1.1C11.9,13.2,11.5,13.1,10.8,13.1
								L10.8,13.1z M9.8,15.9v-2.3h0.9c0.9,0,1.3,0.3,1.3,1c0,0.3-0.1,0.7-0.3,0.9s-0.6,0.3-1,0.3H9.8V15.9z M9.8,19.2v-2.5h0.9
								c1.1,0,1.6,0.3,1.6,1.3c0,0.3-0.1,0.8-0.3,0.9c-0.2,0.2-0.6,0.3-1.1,0.3L9.8,19.2L9.8,19.2z"/>
						</g>
						<g>
							<path style="fill:#FFFFFF;" d="M18.1,19.8h-3.5L14.5,13h0.8l0.1,6.1h2.7V19.8z"/>
							<polygon style="fill:#989798;" points="15.3,13 14.6,13 14.6,19.8 18.1,19.8 18.1,19.1 15.4,19.1 							"/>
						</g>
						<g>
							<path style="fill:#FFFFFF;" d="M21.6,19.9c-1,0-1.8-0.3-2.4-1s-0.9-1.5-0.9-2.5c0-1.1,0.2-2,0.9-2.6c0.6-0.7,1.4-1,2.4-1
								s1.8,0.3,2.3,1c0.7,0.6,0.9,1.5,0.9,2.5c0,1.1-0.2,2-0.9,2.6C23.2,19.4,22.7,19.8,21.6,19.9z M21.8,13.5
								c-0.8,0-1.3,0.2-1.7,0.8c-0.5,0.5-0.6,1.3-0.6,2c0,0.9,0.2,1.5,0.7,2c0.3,0.5,1,0.8,1.8,0.7c0.8,0,1.4-0.2,1.7-0.8
								c0.3-0.5,0.6-1.1,0.6-2s-0.2-1.6-0.7-2.2C23,13.8,22.3,13.5,21.8,13.5z"/>
							<path style="fill:#989798;" d="M21.8,12.8c-1,0-1.9,0.3-2.4,1c-0.6,0.7-0.9,1.5-0.9,2.6c0,1,0.2,1.9,0.9,2.5
								c0.7,0.6,1.4,1,2.4,1s1.7-0.3,2.4-1c0.7-0.7,0.9-1.5,0.9-2.6c0-1-0.2-1.9-0.9-2.5C23.5,13.1,22.7,12.8,21.8,12.8L21.8,12.8z
								 M21.6,19.2c-0.8,0-1.3-0.2-1.8-0.7c-0.3-0.5-0.7-1.3-0.7-2c0-0.9,0.2-1.5,0.6-2c0.5-0.5,1-0.8,1.7-0.8s1.4,0.2,1.8,0.7
								c0.5,0.5,0.7,1.3,0.7,2.2c0,0.9-0.2,1.6-0.6,2C23,19,22.4,19.2,21.6,19.2L21.6,19.2z"/>
						</g>
						<g>
							<path style="fill:#FFFFFF;" d="M31.4,19.2c-0.6,0.3-1.5,0.7-2.3,0.7c-1,0-1.8-0.3-2.4-1s-0.9-1.5-0.9-2.5s0.3-1.9,1-2.6
								c0.6-0.8,1.5-1,2.5-1c0.8,0,1.4,0.1,1.9,0.3V14c-0.5-0.3-1.3-0.5-2-0.5c-0.8,0-1.4,0.2-1.9,0.8c-0.5,0.5-0.8,1.3-0.7,2
								c0,0.9,0.2,1.5,0.7,2s1.1,0.8,1.9,0.7c0.5,0,1-0.1,1.4-0.3v-1.9h-1.5V16h2.4L31.4,19.2z"/>
							<path style="fill:#989798;" d="M29.4,12.7c-1,0-1.9,0.3-2.5,1s-1,1.5-1,2.6c0,1,0.2,1.9,0.9,2.5c0.7,0.6,1.4,1,2.4,1
								c0.9,0,1.6-0.2,2.3-0.7V16h-2.3v0.8h1.5v1.9c-0.5,0.2-0.9,0.3-1.5,0.3c-0.8,0-1.4-0.2-1.9-0.7c-0.6-0.5-0.7-1.1-0.7-2
								s0.2-1.5,0.7-2s1.1-0.8,1.9-0.8s1.4,0.1,2,0.5v-0.9C30.8,12.8,30.2,12.7,29.4,12.7L29.4,12.7z"/>
						</g>
					</g>
				</g>
			</g>
		</g>
		<g>
			<path style="fill:#218DCD;" d="M8.9,12c0.4-0.1,1-0.1,1.7-0.1c0.9,0,1.5,0.2,2,0.5c0.4,0.3,0.6,0.7,0.6,1.3
				c0,0.7-0.5,1.3-1.2,1.6l0,0c0.7,0.2,1.5,0.7,1.5,1.8c0,0.6-0.2,1.1-0.6,1.4c-0.5,0.5-1.3,0.7-2.5,0.7c-0.6,0-1.1,0-1.4-0.1V12
				H8.9z M9.8,15h0.8c1,0,1.6-0.5,1.6-1.2c0-0.8-0.6-1.2-1.6-1.2c-0.4,0-0.7,0-0.8,0.1V15z M9.8,18.4c0.2,0,0.4,0,0.8,0
				c1,0,1.8-0.4,1.8-1.4s-0.8-1.4-1.9-1.4H9.8V18.4z"/>
			<path style="fill:#218DCD;" d="M14.6,12h0.9v6.4h3.1v0.8h-4V12z"/>
			<path style="fill:#218DCD;" d="M25.4,15.5c0,2.5-1.5,3.8-3.3,3.8c-1.9,0-3.2-1.5-3.2-3.6c0-2.3,1.4-3.8,3.3-3.8
				C24.1,11.8,25.4,13.3,25.4,15.5z M19.8,15.6c0,1.5,0.8,2.9,2.3,2.9s2.3-1.4,2.3-3c0-1.4-0.7-2.9-2.3-2.9
				C20.6,12.6,19.8,14,19.8,15.6z"/>
			<path style="fill:#218DCD;" d="M32.1,18.8c-0.4,0.1-1.2,0.4-2.2,0.4c-1.1,0-2-0.3-2.7-0.9c-0.6-0.6-1-1.6-1-2.7
				c0-2.1,1.5-3.7,3.9-3.7c0.8,0,1.5,0.2,1.8,0.3L31.6,13c-0.4-0.2-0.9-0.3-1.6-0.3c-1.7,0-2.9,1.1-2.9,2.9s1.1,2.9,2.8,2.9
				c0.6,0,1-0.1,1.2-0.2v-2.1h-1.5v-0.7h2.5V18.8z"/>
		</g>
	</g>
</g>
<g id="cost_estimate" class="icon">
	<g id="Layer_2_1_">
		<g id="XMLID_1_">
			<g id="XMLID_450_">
				<circle id="XMLID_459_" style="fill:#FFFFFF;" cx="18" cy="21.9" r="13.5"/>
				<path id="XMLID_460_" style="fill:#218DCD;" d="M18,35.8c-7.6,0-13.8-6.2-13.8-13.8S10.4,8.1,18,8.1s13.8,6.2,13.8,13.8
					C31.8,29.5,25.6,35.8,18,35.8z M18,8.6c-7.2,0-13.2,5.9-13.2,13.2s6,13.1,13.2,13.1S31.2,29,31.2,21.8S25.2,8.6,18,8.6z"/>
			</g>
			<g id="XMLID_449_">
				<circle id="XMLID_447_" style="fill:#90D6F0;" cx="18" cy="22" r="9.3"/>
				<path id="XMLID_456_" style="fill:#218DCD;" d="M18,31.5c-5.3,0-9.6-4.3-9.6-9.6s4.3-9.6,9.6-9.6s9.6,4.3,9.6,9.6
					S23.3,31.5,18,31.5z M18,12.8c-5,0-9.1,4.1-9.1,9.1S13,31,18,31s9.1-4.1,9.1-9.1S23,12.8,18,12.8z"/>
			</g>
			<g id="XMLID_448_">
				<path id="XMLID_446_" style="fill:#218DCD;" d="M19.5,27.5c-0.1,0-0.2,0-0.3-0.1l-4.9-4.6c-0.1-0.1-0.2-0.3-0.1-0.6
					c0.1-0.2,0.2-0.3,0.5-0.3h1.9c1.1,0,2.2-0.8,2.4-1.9h-4.4c-0.2,0-0.5-0.2-0.5-0.5s0.2-0.5,0.5-0.5h4.3c-0.2-1.1-1.2-1.9-2.4-1.9
					h-1.9c-0.2,0-0.5-0.2-0.5-0.5c0-0.2,0.2-0.5,0.5-0.5h6.9c0.2,0,0.5,0.2,0.5,0.5c0,0.2-0.2,0.5-0.5,0.5H19c0.6,0.6,0.9,1.2,1,1.9
					h1.5c0.2,0,0.5,0.2,0.5,0.5S21.8,20,21.5,20H20c-0.2,1.7-1.7,2.9-3.4,2.9h-0.8l4,3.7c0.2,0.2,0.2,0.5,0,0.7
					C19.7,27.5,19.6,27.5,19.5,27.5z"/>
			</g>
			<g id="XMLID_445_">
				<path id="XMLID_443_" style="fill:#218DCD;" d="M32.4,9.4l-2.4-8c0-0.1-0.2-0.3-0.3-0.3c-0.2,0-0.3,0.1-0.5,0.2L28,3.8
					C22.2-1,13.8-1,8,3.8L6.8,1.3C6.7,1.2,6.4,1,6.3,1C6.1,1,6,1.1,6,1.3l-2.4,8c0,0.1,0,0.3,0.1,0.5c0.1,0.1,0.2,0.1,0.3,0l8-2.4
					c0.1,0,0.3-0.2,0.3-0.3c0-0.2-0.1-0.3-0.2-0.5l-1.9-1c4.5-3.4,10.9-3.4,15.4,0l-1.9,1c-0.1,0.1-0.2,0.2-0.2,0.5
					c0,0.2,0.1,0.3,0.3,0.3l8,2.4c0.1,0,0.3,0,0.5-0.1C32.4,9.8,32.5,9.5,32.4,9.4L32.4,9.4z"/>
			</g>
		</g>
	</g>
</g>
<g id="diagnostic" class="icon">
	<g>
		<g id="XMLID_221_">
			<g>
				<path style="fill:#FFFFFF;" d="M31.2,33.8c0.1,0.6-0.2,1-0.9,1.2c-0.2,0.1-0.6,0.1-0.9,0.1c-7.7,0-15.5,0-23.1,0
					c-0.2,0-0.3,0-0.6,0c-1-0.1-1.4-0.7-1.2-1.8c0.1-0.3,0.2-0.7,0.3-1.1c2.8-5,5.3-10.2,8.1-15.2c0.1-0.2,0.2-0.4,0.2-0.9
					c0-1.7,0-3.4,0-5.2c-0.4,0-1,0-1.3,0c-0.7,0-1.2-0.4-1.2-1.2c0-0.3,0-0.9,0-1.2c0-0.6,0.4-1.1,1.1-1.1c4,0,7.9,0,11.9,0
					c0.7,0,1.1,0.4,1.2,1.1c0,0.4,0,0.9,0,1.3c0,0.6-0.4,1.1-1.1,1.1c-0.4,0-1,0-1.4,0c0,0.1,0,0.3,0,0.4c0,1.6,0,3.2,0,4.8
					c0,0.2,0.1,0.6,0.2,0.9c2.8,5,5.3,10,8.1,15.2C31,32.7,31.1,33.4,31.2,33.8z"/>
			</g>
			<g>
				<path style="fill:none;stroke:#218DCD;stroke-width:1.5;stroke-miterlimit:10;" d="M13.3,11c0,1.8,0,3.4,0,5.2
					c0,0.2-0.1,0.6-0.2,0.9c-2.8,5-5.3,10.2-8.1,15.2c-0.1,0.3-0.3,0.7-0.3,1.1c-0.2,1,0.1,1.6,1.2,1.8c0.2,0,0.3,0,0.6,0
					c7.7,0,15.5,0,23.1,0c0.2,0,0.6,0,0.9-0.1c0.6-0.1,1-0.6,0.9-1.2c-0.1-0.4-0.2-1.1-0.4-1.6c-2.8-5-5.3-10.2-8.1-15.2
					c-0.1-0.2-0.2-0.4-0.2-0.9c0-1.6,0-3.2,0-4.8c0-0.1,0-0.2,0-0.4c0.4,0,1,0,1.4,0c0.6,0,1.1-0.4,1.1-1.1c0-0.4,0-0.9,0-1.3
					c0-0.7-0.4-1.1-1.2-1.1c-4,0-7.9,0-11.9,0c-0.4-0.1-1,0.3-1,1c0,0.3,0,0.9,0,1.2c0,0.7,0.4,1.2,1.2,1.2C12.4,11,12.9,11,13.3,11
					z"/>
			</g>
		</g>
		<path id="XMLID_220_" style="fill:#90D6F0;" d="M20.9,20.8c2,3.7,4.1,7.5,6.1,11.1c-6.1,0-12.2,0-18.4,0c0.1-0.2,0.1-0.3,0.2-0.6
			c1.3-2.6,2.8-4.9,4.1-7.5c0.1-0.1,0.1-0.2,0.3-0.1c0.9,0.1,1.7,0.3,2.6,0.4c0.6,0.1,1.2-0.1,1.7-0.6c0.3-0.3,0.6-0.6,1-1
			c0.6-0.7,1.3-1.3,2.1-1.8C20.6,20.9,20.8,20.8,20.9,20.8z"/>
		<path id="XMLID_219_" style="fill:#218DCD;" d="M14.6,3.6c0-0.9,0.7-1.6,1.6-1.6s1.4,0.7,1.4,1.4c0,0.9-0.7,1.4-1.4,1.4
			C15.4,5,14.6,4.4,14.6,3.6z"/>
		<path id="XMLID_218_" style="fill:#218DCD;" d="M19.6,2.6c-0.7,0-1.2-0.6-1.2-1.3S19,0,19.7,0.1c0.7,0,1.2,0.6,1.2,1.3
			S20.4,2.6,19.6,2.6z"/>
		<path id="XMLID_217_" style="fill:#218DCD;" d="M19.8,10.5L19.8,10.5c1.9,2.6-0.9,5.1-3.3,3.4C14.6,11.5,17.3,8.8,19.8,10.5z"/>
		<path id="XMLID_216_" style="fill:#218DCD;" d="M18.9,17.3c0,1.3-1.4,2.1-2.9,1.2c-1-1.4,0-2.9,1.3-2.9
			C18.2,15.7,18.9,16.5,18.9,17.3z"/>
	</g>
</g>
<g id="homecare" class="icon">
	<g>
		<path style="fill:#90D6F0;" d="M26.6,16.5H9.2c-0.9,0-1.5,0.8-1.5,1.5v11.4c0,0.9,0.8,1.5,1.5,1.5h17.5c0.9,0,1.5-0.8,1.5-1.5
			V18.1C28.2,17.2,27.5,16.5,26.6,16.5z"/>
		<path style="fill:#218DCD;" d="M13.5,22.1c0.9,0,1.7,0,2.6,0c0.1,0,0.2,0,0.3,0c0-1.1,0-2.1,0-3.2c1.1,0,2.2,0,3.2,0
			c0,1.1,0,2.1,0,3.2c1.1,0,2.1,0,3.2,0c0,1.1,0,2.2,0,3.2c-1.1,0-2.1,0-3.2,0c0,1.1,0,2.1,0,3.2c-1.1,0-2.2,0-3.2,0
			c0-1.1,0-2.1,0-3.2c-1.1,0-2.1,0-3.2,0c0-0.1,0-0.1,0-0.1c0-1,0-2,0-2.7C13.3,22.1,13.4,22.1,13.5,22.1z"/>
		<path style="fill:none;stroke:#218DCD;stroke-width:1.5;stroke-miterlimit:10;" d="M34.3,12.9C29.5,9.4,24.6,6,19.8,2.4
			C19.3,2,18.7,1.8,18,1.8l0,0c-0.6,0-1.2,0.2-1.8,0.6c-4.8,3.5-9.7,7-14.5,10.5c-0.7,0.5-1.1,1.2-0.6,2.2c0.1,0.6,0.5,1.3,1.4,1.4
			c0.4,0.1,1,0,1.4,0c0,5.8,0,11.8,0,17.6c4.8,0,9.5,0,14.1,0l0,0c4.7,0,9.4,0,14.1,0c0-5.9,0-11.9,0-17.6c0.4,0,1,0.1,1.4,0
			c0.9-0.1,1.3-0.7,1.4-1.4C35.4,14.1,35,13.4,34.3,12.9z"/>
	</g>
</g>
<g id="medical_tourism" class="icon">
	<g>
		<path style="fill:#218DCD;" d="M30.7,12.2C30.7,12.2,30.6,12.5,30.7,12.2c-0.7,0.3-1.2,0.8-1.9,1.2c-0.1,0-0.1,0.2-0.1,0.2
			c0,0.5-0.1,1-0.1,1.5c0,0,0,0.1-0.1,0.1c-0.2,0.1-0.3,0.2-0.7,0.3c-0.1,0.1-0.1,0-0.2-0.1c0-0.8-0.1-1.4-0.1-2.2
			c0-0.1,0-0.1-0.1-0.2c-0.7-0.3-1.3-0.7-1.9-1c-0.1-0.1-0.1-0.1,0-0.2c0.2-0.1,0.3-0.2,0.7-0.3c0.1,0,0.1,0,0.2,0
			c0.5,0.1,0.9,0.3,1.4,0.5h0.1c0.7-0.3,1.2-0.8,1.6-1.2l0,0c0,0-0.1,0-0.1-0.1c-1-0.7-2.1-1.5-3.3-2.3c0,0,0,0-0.1,0
			c-0.1-0.1-0.1-0.1,0-0.2c0.1-0.1,0.3-0.2,0.5-0.3c0.2-0.1,0.3-0.2,0.7-0.3c0.1,0,0.1,0,0.2,0c1.5,0.7,3,1.3,4.5,2
			c0.1,0,0.1,0,0.1,0c0.7-0.3,1.4-0.9,2.1-1.3c0.3-0.2,0.8-0.3,1.2-0.2C35.6,8.1,36,8.4,36,9c-0.1,0.3-0.2,0.7-0.7,0.8
			c-0.8,0.5-1.4,0.9-2.2,1.4c-0.1,0-0.1,0.1-0.1,0.2c0,0.9,0,1.6-0.1,2.6c0,0.8,0,1.5-0.1,2.2c0,0.1,0,0.1-0.1,0.2
			c-0.3,0.2-0.8,0.3-1.2,0.7c-0.1,0.1-0.1,0-0.2-0.1C31.3,15.1,30.9,13.9,30.7,12.2C30.7,12.5,30.7,12.5,30.7,12.2z"/>
		<g>
			<path style="fill:#218DCD;" d="M23.2,13.1h-4.8V5c0-0.4-0.3-0.7-0.7-0.7H9.5C9.1,4.3,8.8,4.6,8.8,5v8.1H0.7
				c-0.4,0-0.7,0.3-0.7,0.7v6.5C3.3,20.1,14,19.1,23.2,13.1z"/>
			<path style="fill:#90D6F0;" d="M0,21.6v0.5c0,0.4,0.3,0.7,0.7,0.7h8.1V31c0,0.4,0.3,0.7,0.7,0.7h8.3c0.4,0,0.7-0.3,0.7-0.7v-8.1
				h8.1c0.4,0,0.7-0.3,0.7-0.7v-5.8C24,17.6,13.8,21.5,0,21.6z"/>
		</g>
	</g>
</g>
<g id="medical_expert" class="icon">
	<g id="XMLID_909_">
		
			<ellipse id="XMLID_490_" style="fill:#FFFFFF;stroke:#1D8DCD;stroke-width:0.75;stroke-miterlimit:10;" cx="15.2" cy="9.9" rx="6.4" ry="7.1"/>
		<g id="XMLID_486_">
			<path id="XMLID_489_" style="fill:#CEECF9;stroke:#218DCD;stroke-width:0.75;stroke-miterlimit:10;" d="M29.2,25.6v4.8
				c0,0.9-0.7,1.6-1.6,1.6H3.5c-0.9,0-1.6-0.7-1.6-1.6v-4.8c0-0.1,0-0.2,0-0.3C2,24.6,2.8,21.7,8.1,20c0.6-0.2,1.2,0,1.7,0.4l2,2.1
				c0.6,0.6,1.6,0.7,2.3,0l0,0c0.6-0.6,1.6-0.6,2.2,0l0,0c0.7,0.6,1.7,0.6,2.3,0l2.2-2.2c0.4-0.4,1-0.6,1.6-0.4
				c5.7,1.6,6.6,4.6,6.7,5.4C29.2,25.4,29.2,25.5,29.2,25.6z"/>
			<polygon id="XMLID_488_" style="fill:#1D8DCD;" points="22.3,19.6 21.6,20.4 17.6,24.4 15.3,22.2 17.9,19.8 20.1,17.6 			"/>
			<polygon id="XMLID_487_" style="fill:#1D8DCD;" points="15.3,22.2 12.9,24.4 9.1,20.5 8.3,19.6 10.4,17.6 12.7,19.8 			"/>
		</g>
		
			<line id="XMLID_485_" style="fill:none;stroke:#218DCD;stroke-width:0.75;stroke-miterlimit:10;" x1="15.3" y1="22.5" x2="15.3" y2="32"/>
		<path id="XMLID_484_" style="fill:#1D8DCD;" d="M24.1,9.3c0-5-4-9.1-8.9-9.1S6.2,4.3,6.2,9.3h0.9c0-4.5,3.6-8.2,8-8.2s8,3.7,8,8.2
			H24.1z"/>
		<circle id="XMLID_483_" style="fill:#FFFFFF;" cx="27.6" cy="30.4" r="6.6"/>
		<circle id="XMLID_482_" style="fill:#1D8DCD;" cx="27.6" cy="30.4" r="5.6"/>
		<circle id="XMLID_481_" style="fill:#CEECF9;" cx="27.6" cy="30.4" r="4.2"/>
		<polygon id="XMLID_480_" style="fill:#1D8DCD;" points="29.9,29.6 29.9,31.1 28.4,31.1 28.4,32.7 26.9,32.7 26.9,31.1 25.3,31.1 
			25.3,29.6 26.9,29.6 26.9,28.1 28.4,28.1 28.4,29.6 		"/>
		<path id="XMLID_479_" style="fill:none;stroke:#1D8DCD;stroke-width:0.75;stroke-miterlimit:10;" d="M6.7,13.1
			c0,0,1.8,1.7,5.3,1.7"/>
		<path id="XMLID_478_" style="fill:#1D8DCD;" d="M13.4,15.7h-0.6c-0.6,0-1-0.4-1-1v-0.1c0-0.6,0.4-1,1-1h0.6c0.6,0,1,0.4,1,1v0.1
			C14.5,15.3,14,15.7,13.4,15.7z"/>
		<path id="XMLID_477_" style="fill:#1D8DCD;stroke:#218DCD;stroke-miterlimit:10;" d="M7.4,8.6c0-0.3-0.2-0.5-0.5-0.4
			c-1.5,0.2-2.7,1.6-2.7,3.2s1.2,2.9,2.7,3.2c0.3,0,0.5-0.2,0.5-0.4L7.4,8.6z"/>
		<path id="XMLID_470_" style="fill:#1D8DCD;stroke:#218DCD;stroke-miterlimit:10;" d="M22.9,8.6c0-0.3,0.2-0.5,0.5-0.4
			c1.5,0.2,2.7,1.6,2.7,3.2s-1.2,2.9-2.7,3.2c-0.3,0-0.5-0.2-0.5-0.4V8.6z"/>
	</g>
</g>
<g id="medicines" class="icon">
	<g id="Layer_8">
		<g id="Layer_8_1_">
			<g id="XMLID_225_">
				<polygon id="XMLID_233_" style="fill:#FFFFFF;stroke:#218DCD;stroke-width:0.73;stroke-miterlimit:10;" points="1.7,16.6 
					1.7,28.4 16.3,28.4 16.3,28.4 22.9,23.5 22.9,16.6 				"/>
				<path id="XMLID_232_" style="fill:#FFFFFF;stroke:#218DCD;stroke-width:0.73;stroke-miterlimit:10;" d="M33.7,23
					c1.3,2.4,0.5,5.3-1.7,6.7l-4.1,2.4l-5-8.6c5.4-3.3,3.8-2.2,4.1-2.4C29.2,19.9,32.1,20.7,33.7,23z"/>
				<path id="XMLID_231_" style="fill:#FFFFFF;stroke:#218DCD;stroke-width:0.73;stroke-miterlimit:10;" d="M18.7,9.5l3.7,4.9
					c0.3,0.4,0.5,1.1,0.5,1.6v0.4H1.7V16c0-0.5,0.2-1.2,0.5-1.6l3.7-4.9V6.6h12.7v2.8l0,0v0.1H18.7z"/>
				<path id="XMLID_230_" style="fill:#218DCD;stroke:#218DCD;stroke-width:0.73;stroke-miterlimit:10;" d="M20.1,2v3.3
					c0,0.9-0.5,1.4-1.4,1.4H5.9C5.2,6.6,4.5,6.1,4.5,5.2V1.9c0-0.7,0.7-1.3,1.4-1.3h12.7C19.4,0.6,20.1,1.3,20.1,2z"/>
				<path id="XMLID_229_" style="fill:#FFFFFF;stroke:#218DCD;stroke-width:0.73;stroke-miterlimit:10;" d="M16.3,28.4L16.3,28.4
					H1.7v1.4c0,1.5,1.3,2.8,2.8,2.8h11.7l0,0L16.3,28.4L16.3,28.4z"/>
				<path id="XMLID_228_" style="fill:#90D6F0;stroke:#218DCD;stroke-width:0.73;stroke-miterlimit:10;" d="M22.7,23.5l5,8.6
					l-4.3,2.6C20.9,36,18,35.3,16.6,33s-0.5-5.3,1.7-6.7L22.7,23.5z"/>
				<polygon id="XMLID_227_" style="fill:#218DCD;stroke:#218DCD;stroke-width:0.73;stroke-miterlimit:10;" points="16.3,21.3 
					16.3,23.7 13.6,23.7 13.6,26.5 11.2,26.5 11.2,23.7 8.3,23.7 8.3,21.3 11.2,21.3 11.2,18.6 13.6,18.6 13.6,21.3 				"/>
			</g>
			<g id="XMLID_237_" style="display:none;">
				<polygon id="XMLID_245_" style="display:inline;fill:#989798;stroke:#989798;stroke-miterlimit:10;" points="1.7,16.6 1.7,28.4 
					16.3,28.4 16.3,28.4 22.9,23.5 22.9,16.6 				"/>
				<path id="XMLID_244_" style="display:inline;fill:#FFFFFF;stroke:#989798;stroke-width:0.73;stroke-miterlimit:10;" d="M33.7,23
					c1.3,2.4,0.5,5.3-1.7,6.7l-4.1,2.4l-5-8.6c5.4-3.3,3.8-2.2,4.1-2.4C29.2,19.9,32.1,20.7,33.7,23z"/>
				<path id="XMLID_243_" style="display:inline;fill:#FFFFFF;stroke:#989798;stroke-width:0.73;stroke-miterlimit:10;" d="
					M18.7,9.5l3.7,4.9c0.3,0.4,0.5,1.1,0.5,1.6v0.4H1.7V16c0-0.5,0.2-1.2,0.5-1.6l3.7-4.9V6.6h12.7v2.8l0,0v0.1H18.7z"/>
				<path id="XMLID_242_" style="display:inline;fill:#989798;" d="M20.1,2v3.3c0,0.9-0.5,1.4-1.4,1.4H5.9C5.2,6.6,4.5,6.1,4.5,5.2
					V1.9c0-0.7,0.7-1.3,1.4-1.3h12.7C19.4,0.6,20.1,1.3,20.1,2z"/>
				<path id="XMLID_241_" style="display:inline;fill:#FFFFFF;stroke:#989798;stroke-width:0.73;stroke-miterlimit:10;" d="
					M16.3,28.4L16.3,28.4H1.7v1.4c0,1.5,1.3,2.8,2.8,2.8h11.7l0,0L16.3,28.4L16.3,28.4z"/>
				<path id="XMLID_240_" style="display:inline;fill:#989798;stroke:#989798;stroke-width:0.73;stroke-miterlimit:10;" d="
					M22.7,23.5l5,8.6l-4.3,2.6C20.9,36,18,35.3,16.6,33s-0.5-5.3,1.7-6.7L22.7,23.5z"/>
				<polygon id="XMLID_239_" style="display:inline;fill:#FFFFFF;" points="16.3,21.3 16.3,23.7 13.6,23.7 13.6,26.5 11.2,26.5 
					11.2,23.7 8.3,23.7 8.3,21.3 11.2,21.3 11.2,18.6 13.6,18.6 13.6,21.3 				"/>
				<rect id="XMLID_238_" x="5.9" y="9" style="display:inline;fill:#989798;" width="12.5" height="0.5"/>
			</g>
		</g>
	</g>
</g>
<g id="second_opinion" class="icon">
	<g>
		<g id="Layer_10">
			<g id="Layer_2_3_">
				<g id="Layer_2_4_">
					<g>
						<g id="XMLID_2_">
							<g>
								<path style="fill:#FFFFFF;" d="M29.7,8.3V33c0,0.8-0.8,1.6-1.8,1.6H8.1c-1,0-1.8-0.7-1.8-1.6V8.3c0.1-0.8,0.8-1.6,1.8-1.6
									H28C28.8,6.6,29.7,7.4,29.7,8.3z"/>
								<path style="fill:#218DCD;" d="M8.3,35.8c-1.7,0-3-1.2-3-2.8V7.9c0.1-1.4,1.3-2.7,3-2.7h19.5c1.7,0,3,1.2,3,2.8v25.1
									c0,1.6-1.3,2.8-3,2.8C27.8,35.8,8.3,35.8,8.3,35.8z M8.1,34.5H28c1,0,1.8-0.7,1.8-1.6V8.3c0-0.8-0.8-1.6-1.8-1.6H8.1
									c-0.8,0-1.7,0.7-1.7,1.6V33C6.4,33.7,7.3,34.5,8.1,34.5z"/>
							</g>
						</g>
						<path style="fill:#90D6F0;" d="M23.6,28.3H12.4c-1.3,0-2.4-1.1-2.4-2.7V14.9c0-1.3,1.1-2.4,2.4-2.4h11.3
							c1.3,0,2.4,1.1,2.4,2.4v10.7C26.1,27.3,24.9,28.3,23.6,28.3z"/>
						<path style="fill:#218DCD;" d="M25.2,3.5H21c-0.3,0-0.6-0.3-0.4-0.6c0.1-0.3,0-0.7,0-1c-0.3-0.8-1.1-1.6-2-1.7
							c-1.5-0.1-2.8,0.9-2.8,2.3c0,0.1,0,0.2,0,0.4s-0.1,0.4-0.4,0.4h-4.6c-0.1,0-0.2,0.2-0.2,0.3v3.2c0,0.2,0.1,0.3,0.3,0.3h14.2
							c0.2,0,0.3-0.1,0.3-0.3v-3C25.5,3.7,25.4,3.5,25.2,3.5z"/>
					</g>
				</g>
			</g>
		</g>
		<path style="fill:#218DCD;" d="M22.6,18.9h-3v-3c0-0.2-0.2-0.4-0.4-0.4H17c-0.2,0-0.4,0.2-0.4,0.4v3h-3c-0.2,0-0.4,0.2-0.4,0.4
			v2.3c0,0.2,0.2,0.4,0.4,0.4h3v3c0,0.2,0.2,0.4,0.4,0.4h2.3c0.2,0,0.4-0.2,0.4-0.4v-3h3c0.2,0,0.4-0.2,0.4-0.4v-2.3
			C22.9,19.1,22.8,18.9,22.6,18.9z"/>
	</g>
</g>
</svg>
