<svg xmlns="http://www.w3.org/2000/svg" xmlns:xlink="http://www.w3.org/1999/xlink" width="36.356" height="37.681" viewBox="0 0 36.356 37.681"><defs><linearGradient id="a" x1="1.258" y1="-0.105" x2="0.5" y2="1" gradientUnits="objectBoundingBox"><stop offset="0" stop-color="#005897" stop-opacity="0.102"/><stop offset="1" stop-color="#005897"/></linearGradient></defs><g transform="translate(-9 0)"><path d="M36.529,34.372c0-1.144,0,.892,0-29.712A4.665,4.665,0,0,0,31.866,0H13.659A4.665,4.665,0,0,0,9,4.659V30.026a7.664,7.664,0,0,0,7.655,7.655h20.98A5.488,5.488,0,0,1,36.529,34.372ZM20.113,21.711H14.52a1.1,1.1,0,1,1,0-2.208h5.593a1.1,1.1,0,0,1,0,2.208Zm0-4.71H14.52a1.1,1.1,0,0,1,0-2.208h5.593a1.1,1.1,0,0,1,0,2.208Zm8.5,13.3v.763a1.1,1.1,0,1,1-2.208,0V30.4a5.307,5.307,0,0,1-2.627-.985,1.1,1.1,0,0,1,1.208-1.848,3.3,3.3,0,0,0,1.418.614V23.63a8.012,8.012,0,0,1-1.631-.955c-1.987-1.559-1.361-5.367,1.631-6.153v-.664a1.1,1.1,0,0,1,2.208,0v.587a4.473,4.473,0,0,1,2.071.991,1.1,1.1,0,0,1-.775,1.887c-.586,0-.631-.33-1.3-.588v3.416c.189.07.378.138.563.2,4.056,1.434,3.3,6.97-.563,7.95Zm2.393-18.012H14.52a1.1,1.1,0,1,1,0-2.208H31.005a1.1,1.1,0,0,1,0,2.208Zm0-4.121H14.52a1.1,1.1,0,1,1,0-2.208H31.005a1.1,1.1,0,0,1,0,2.208Z" fill="url(#a)"/><path d="M238.024,259.162c.082.065.173.128.269.191v-2.2A1.437,1.437,0,0,0,238.024,259.162Z" transform="translate(-211.889 -238.225)" fill="url(#a)"/><path d="M275.48,332.94v3.434C276.706,335.648,277.091,333.639,275.48,332.94Z" transform="translate(-246.868 -308.437)" fill="url(#a)"/><path d="M417.2,241H413c0,19.359,0,15.627,0,16.635a3.31,3.31,0,0,0,6.619,0V243.419A2.422,2.422,0,0,0,417.2,241Z" transform="translate(-374.267 -223.263)" fill="url(#a)"/></g></svg>